<mxfile host="app.diagrams.net" agent="Mozilla/5.0 (Macintosh; Intel Mac OS X 10_15_7) AppleWebKit/605.1.15 (KHTML, like Gecko) Version/18.1 Safari/605.1.15" version="24.7.17">
  <diagram name="Page-1" id="7qDVB2i-8AQhjr3xlI2W">
    <mxGraphModel dx="906" dy="575" grid="1" gridSize="10" guides="1" tooltips="1" connect="1" arrows="1" fold="1" page="1" pageScale="1" pageWidth="850" pageHeight="1100" math="0" shadow="0">
      <root>
        <mxCell id="0" />
        <mxCell id="1" parent="0" />
        <mxCell id="HHL6URZeFr0VbkjdM9OA-9" value="application" style="text;html=1;align=center;verticalAlign=middle;whiteSpace=wrap;rounded=0;" parent="1" vertex="1">
          <mxGeometry x="690" y="130" width="60" height="30" as="geometry" />
        </mxCell>
        <mxCell id="HHL6URZeFr0VbkjdM9OA-10" value="presentation" style="text;html=1;align=center;verticalAlign=middle;whiteSpace=wrap;rounded=0;" parent="1" vertex="1">
          <mxGeometry x="690" y="180" width="60" height="30" as="geometry" />
        </mxCell>
        <mxCell id="HHL6URZeFr0VbkjdM9OA-11" value="session" style="text;html=1;align=center;verticalAlign=middle;whiteSpace=wrap;rounded=0;" parent="1" vertex="1">
          <mxGeometry x="690" y="230" width="60" height="30" as="geometry" />
        </mxCell>
        <mxCell id="HHL6URZeFr0VbkjdM9OA-12" value="transport" style="text;html=1;align=center;verticalAlign=middle;whiteSpace=wrap;rounded=0;" parent="1" vertex="1">
          <mxGeometry x="690" y="285" width="60" height="30" as="geometry" />
        </mxCell>
        <mxCell id="HHL6URZeFr0VbkjdM9OA-13" value="network" style="text;html=1;align=center;verticalAlign=middle;whiteSpace=wrap;rounded=0;" parent="1" vertex="1">
          <mxGeometry x="690" y="330" width="60" height="30" as="geometry" />
        </mxCell>
        <mxCell id="HHL6URZeFr0VbkjdM9OA-14" value="datalink" style="text;html=1;align=center;verticalAlign=middle;whiteSpace=wrap;rounded=0;" parent="1" vertex="1">
          <mxGeometry x="690" y="380" width="60" height="30" as="geometry" />
        </mxCell>
        <mxCell id="HHL6URZeFr0VbkjdM9OA-15" value="physical" style="text;html=1;align=center;verticalAlign=middle;whiteSpace=wrap;rounded=0;" parent="1" vertex="1">
          <mxGeometry x="690" y="430" width="60" height="30" as="geometry" />
        </mxCell>
        <mxCell id="HHL6URZeFr0VbkjdM9OA-17" value="application" style="text;html=1;align=center;verticalAlign=middle;whiteSpace=wrap;rounded=0;" parent="1" vertex="1">
          <mxGeometry x="130" y="130" width="60" height="30" as="geometry" />
        </mxCell>
        <mxCell id="HHL6URZeFr0VbkjdM9OA-18" value="presentation" style="text;html=1;align=center;verticalAlign=middle;whiteSpace=wrap;rounded=0;" parent="1" vertex="1">
          <mxGeometry x="130" y="180" width="60" height="30" as="geometry" />
        </mxCell>
        <mxCell id="HHL6URZeFr0VbkjdM9OA-19" value="session" style="text;html=1;align=center;verticalAlign=middle;whiteSpace=wrap;rounded=0;" parent="1" vertex="1">
          <mxGeometry x="130" y="230" width="60" height="30" as="geometry" />
        </mxCell>
        <mxCell id="HHL6URZeFr0VbkjdM9OA-20" value="transport" style="text;html=1;align=center;verticalAlign=middle;whiteSpace=wrap;rounded=0;" parent="1" vertex="1">
          <mxGeometry x="130" y="285" width="60" height="30" as="geometry" />
        </mxCell>
        <mxCell id="HHL6URZeFr0VbkjdM9OA-21" value="network" style="text;html=1;align=center;verticalAlign=middle;whiteSpace=wrap;rounded=0;" parent="1" vertex="1">
          <mxGeometry x="130" y="330" width="60" height="30" as="geometry" />
        </mxCell>
        <mxCell id="HHL6URZeFr0VbkjdM9OA-22" value="datalink" style="text;html=1;align=center;verticalAlign=middle;whiteSpace=wrap;rounded=0;" parent="1" vertex="1">
          <mxGeometry x="130" y="380" width="60" height="30" as="geometry" />
        </mxCell>
        <mxCell id="HHL6URZeFr0VbkjdM9OA-23" value="physical" style="text;html=1;align=center;verticalAlign=middle;whiteSpace=wrap;rounded=0;" parent="1" vertex="1">
          <mxGeometry x="130" y="430" width="60" height="30" as="geometry" />
        </mxCell>
        <mxCell id="HHL6URZeFr0VbkjdM9OA-24" value="AH" style="rounded=0;whiteSpace=wrap;html=1;" parent="1" vertex="1">
          <mxGeometry x="490" y="130" width="50" height="30" as="geometry" />
        </mxCell>
        <mxCell id="HHL6URZeFr0VbkjdM9OA-25" value="AH" style="rounded=0;whiteSpace=wrap;html=1;" parent="1" vertex="1">
          <mxGeometry x="490" y="180" width="50" height="30" as="geometry" />
        </mxCell>
        <mxCell id="HHL6URZeFr0VbkjdM9OA-26" value="AH" style="rounded=0;whiteSpace=wrap;html=1;" parent="1" vertex="1">
          <mxGeometry x="490" y="230" width="50" height="30" as="geometry" />
        </mxCell>
        <mxCell id="HHL6URZeFr0VbkjdM9OA-27" value="AH" style="rounded=0;whiteSpace=wrap;html=1;" parent="1" vertex="1">
          <mxGeometry x="490" y="285" width="50" height="30" as="geometry" />
        </mxCell>
        <mxCell id="HHL6URZeFr0VbkjdM9OA-28" value="AH" style="rounded=0;whiteSpace=wrap;html=1;" parent="1" vertex="1">
          <mxGeometry x="490" y="330" width="50" height="30" as="geometry" />
        </mxCell>
        <mxCell id="HHL6URZeFr0VbkjdM9OA-29" value="AH" style="rounded=0;whiteSpace=wrap;html=1;" parent="1" vertex="1">
          <mxGeometry x="490" y="380" width="50" height="30" as="geometry" />
        </mxCell>
        <mxCell id="HHL6URZeFr0VbkjdM9OA-31" value="DATA" style="rounded=0;whiteSpace=wrap;html=1;" parent="1" vertex="1">
          <mxGeometry x="540" y="130" width="50" height="30" as="geometry" />
        </mxCell>
        <mxCell id="HHL6URZeFr0VbkjdM9OA-32" value="DATA" style="rounded=0;whiteSpace=wrap;html=1;" parent="1" vertex="1">
          <mxGeometry x="540" y="180" width="50" height="30" as="geometry" />
        </mxCell>
        <mxCell id="HHL6URZeFr0VbkjdM9OA-33" value="DATA" style="rounded=0;whiteSpace=wrap;html=1;" parent="1" vertex="1">
          <mxGeometry x="540" y="230" width="50" height="30" as="geometry" />
        </mxCell>
        <mxCell id="HHL6URZeFr0VbkjdM9OA-34" value="DATA" style="rounded=0;whiteSpace=wrap;html=1;" parent="1" vertex="1">
          <mxGeometry x="540" y="285" width="50" height="30" as="geometry" />
        </mxCell>
        <mxCell id="HHL6URZeFr0VbkjdM9OA-36" value="DATA" style="rounded=0;whiteSpace=wrap;html=1;" parent="1" vertex="1">
          <mxGeometry x="540" y="330" width="50" height="30" as="geometry" />
        </mxCell>
        <mxCell id="HHL6URZeFr0VbkjdM9OA-37" value="DATA" style="rounded=0;whiteSpace=wrap;html=1;" parent="1" vertex="1">
          <mxGeometry x="540" y="380" width="50" height="30" as="geometry" />
        </mxCell>
        <mxCell id="HHL6URZeFr0VbkjdM9OA-39" value="PH" style="rounded=0;whiteSpace=wrap;html=1;" parent="1" vertex="1">
          <mxGeometry x="440" y="180" width="50" height="30" as="geometry" />
        </mxCell>
        <mxCell id="HHL6URZeFr0VbkjdM9OA-40" value="PH" style="rounded=0;whiteSpace=wrap;html=1;" parent="1" vertex="1">
          <mxGeometry x="440" y="230" width="50" height="30" as="geometry" />
        </mxCell>
        <mxCell id="HHL6URZeFr0VbkjdM9OA-41" value="SH" style="rounded=0;whiteSpace=wrap;html=1;" parent="1" vertex="1">
          <mxGeometry x="390" y="230" width="50" height="30" as="geometry" />
        </mxCell>
        <mxCell id="HHL6URZeFr0VbkjdM9OA-42" value="SH" style="rounded=0;whiteSpace=wrap;html=1;" parent="1" vertex="1">
          <mxGeometry x="390" y="285" width="50" height="30" as="geometry" />
        </mxCell>
        <mxCell id="HHL6URZeFr0VbkjdM9OA-43" value="PH" style="rounded=0;whiteSpace=wrap;html=1;" parent="1" vertex="1">
          <mxGeometry x="440" y="285" width="50" height="30" as="geometry" />
        </mxCell>
        <mxCell id="HHL6URZeFr0VbkjdM9OA-44" value="SH" style="rounded=0;whiteSpace=wrap;html=1;" parent="1" vertex="1">
          <mxGeometry x="390" y="330" width="50" height="30" as="geometry" />
        </mxCell>
        <mxCell id="HHL6URZeFr0VbkjdM9OA-45" value="PH" style="rounded=0;whiteSpace=wrap;html=1;" parent="1" vertex="1">
          <mxGeometry x="440" y="330" width="50" height="30" as="geometry" />
        </mxCell>
        <mxCell id="HHL6URZeFr0VbkjdM9OA-46" value="TH" style="rounded=0;whiteSpace=wrap;html=1;" parent="1" vertex="1">
          <mxGeometry x="340" y="285" width="50" height="30" as="geometry" />
        </mxCell>
        <mxCell id="HHL6URZeFr0VbkjdM9OA-47" value="TH" style="rounded=0;whiteSpace=wrap;html=1;" parent="1" vertex="1">
          <mxGeometry x="340" y="330" width="50" height="30" as="geometry" />
        </mxCell>
        <mxCell id="HHL6URZeFr0VbkjdM9OA-49" value="PH" style="rounded=0;whiteSpace=wrap;html=1;" parent="1" vertex="1">
          <mxGeometry x="440" y="380" width="50" height="30" as="geometry" />
        </mxCell>
        <mxCell id="HHL6URZeFr0VbkjdM9OA-50" value="TH" style="rounded=0;whiteSpace=wrap;html=1;" parent="1" vertex="1">
          <mxGeometry x="340" y="380" width="50" height="30" as="geometry" />
        </mxCell>
        <mxCell id="HHL6URZeFr0VbkjdM9OA-51" value="SH" style="rounded=0;whiteSpace=wrap;html=1;" parent="1" vertex="1">
          <mxGeometry x="390" y="380" width="50" height="30" as="geometry" />
        </mxCell>
        <mxCell id="HHL6URZeFr0VbkjdM9OA-52" value="NH" style="rounded=0;whiteSpace=wrap;html=1;" parent="1" vertex="1">
          <mxGeometry x="290" y="330" width="50" height="30" as="geometry" />
        </mxCell>
        <mxCell id="HHL6URZeFr0VbkjdM9OA-53" value="NH" style="rounded=0;whiteSpace=wrap;html=1;" parent="1" vertex="1">
          <mxGeometry x="290" y="380" width="50" height="30" as="geometry" />
        </mxCell>
        <mxCell id="HHL6URZeFr0VbkjdM9OA-54" value="NH" style="rounded=0;whiteSpace=wrap;html=1;" parent="1" vertex="1">
          <mxGeometry x="240" y="380" width="50" height="30" as="geometry" />
        </mxCell>
        <mxCell id="HHL6URZeFr0VbkjdM9OA-55" value="packet" style="text;html=1;align=center;verticalAlign=middle;whiteSpace=wrap;rounded=0;" parent="1" vertex="1">
          <mxGeometry x="610" y="330" width="60" height="30" as="geometry" />
        </mxCell>
        <mxCell id="HHL6URZeFr0VbkjdM9OA-56" value="frame" style="text;html=1;align=center;verticalAlign=middle;whiteSpace=wrap;rounded=0;" parent="1" vertex="1">
          <mxGeometry x="610" y="380" width="60" height="30" as="geometry" />
        </mxCell>
      </root>
    </mxGraphModel>
  </diagram>
</mxfile>
